<svg width="116" height="166" viewBox="0 0 116 166" fill="none" xmlns="http://www.w3.org/2000/svg">
<g clip-path="url(#clip0_21_98)">
<path d="M57.9293 165.581L10.7219 152.281L0.20166 32.5406H115.798L105.267 152.263L57.9293 165.581V165.581Z" fill="#264DE4"/>
<path d="M96.2515 144.639L105.251 42.3309H58V155.401L96.2515 144.639V144.639Z" fill="#2965F1"/>
<path d="M24.3188 86.7412L25.6156 101.427H58V86.7412H24.3188ZM21.7124 57.0171L23.0278 71.7028H58V57.0171H21.7124V57.0171ZM58 124.882L57.9366 124.899L41.8198 120.482L40.7894 108.77H26.2622L28.2895 131.829L57.9334 140.179L58 140.161V124.882Z" fill="#EBEBEB"/>
<path d="M27.4068 0H44.9337V7.43827H34.7365V14.8765H44.9346V22.3144H27.4068V0ZM48.4395 0H65.9668V6.46802H55.7693V7.76153H65.9668V22.6381H48.44V15.8459H58.6375V14.5524H48.439L48.4395 0ZM69.4727 0H87V6.46802H76.8024V7.76153H87V22.6381H69.4727V15.8459H79.6702V14.5524H69.4731L69.4727 0Z" fill="white"/>
<path d="M91.5888 86.7412L94.2011 57.0171H57.9502V71.7028H78.3417L77.0249 86.7412H57.9502V101.427H75.7702L74.09 120.473L57.9497 124.894V140.173L87.6172 131.829L87.8347 129.348L91.2358 90.6847L91.5888 86.7412V86.7412Z" fill="white"/>
</g>
<defs>
<clipPath id="clip0_21_98">
<rect width="116" height="166" fill="white"/>
</clipPath>
</defs>
</svg>
