<svg width="116" height="166" viewBox="0 0 116 166" fill="none" xmlns="http://www.w3.org/2000/svg">
<g clip-path="url(#clip0_21_104)">
<path d="M115.798 32.5406L105.267 152.263L57.9293 165.581L10.7219 152.281L0.20166 32.5406H115.798Z" fill="#E44D26"/>
<path d="M58 155.401L96.2515 144.639L105.251 42.3309H58V155.401Z" fill="#F16529"/>
<path d="M37.5278 71.7028H58V57.0171H21.7124L22.0586 60.9569L25.6156 101.427H58V86.7412H38.8505L37.5278 71.7028ZM40.7894 108.77H26.2622L28.2895 131.829L57.9334 140.179L58 140.161V124.882L57.9366 124.899L41.8198 120.482L40.7894 108.77Z" fill="#EBEBEB"/>
<path d="M10.9565 0H18.3108V7.37344H25.0383V0H32.393V22.3286H25.0388V14.8517H18.3112V22.3286H10.957V0H10.9565ZM42.0636 7.4047H35.5902V0H55.8966V7.4047H49.4192V22.3286H42.0649V7.4047H42.0645H42.0636ZM59.1192 0H66.7874L71.5045 7.84568L76.217 0H83.8884V22.3286H76.5641V11.2613L71.5045 19.2004H71.3776L66.3148 11.2613V22.3286H59.1192V0ZM87.5483 0H94.9048V14.9483H105.247V22.3286H87.5478V0H87.5483Z" fill="white"/>
<path d="M57.9502 101.427H75.7702L74.09 120.473L57.9497 124.894V140.173L87.6172 131.829L87.8347 129.348L91.2358 90.6847L91.5888 86.7412H57.9502V101.427ZM57.9502 71.6669V71.7028H92.9056L93.1956 68.4021L93.8553 60.9569L94.2011 57.0171H57.9502V71.6674V71.6669Z" fill="white"/>
</g>
<defs>
<clipPath id="clip0_21_104">
<rect width="116" height="166" fill="white"/>
</clipPath>
</defs>
</svg>
