<svg width="166" height="133" viewBox="0 0 166 133" fill="none" xmlns="http://www.w3.org/2000/svg">
<g clip-path="url(#clip0_21_96)">
<path d="M142.839 76.554C137.064 76.5858 132.044 78.0717 127.841 80.2683C126.299 77.0056 124.757 74.099 124.485 71.9669C124.182 69.48 123.82 67.9616 124.182 64.9899C124.545 62.0182 126.178 57.7864 126.148 57.4636C126.118 57.1408 125.785 55.6224 122.459 55.5905C119.133 55.558 116.26 56.2687 115.928 57.2052C115.595 58.1418 114.96 60.2739 114.537 62.4698C113.962 65.7006 107.885 77.2314 104.408 83.2719C103.289 80.9146 102.322 78.8468 102.109 77.1996C101.807 74.7128 101.444 73.1943 101.807 70.2226C102.17 67.2509 103.803 63.0198 103.773 62.6963C103.742 62.3735 103.41 60.8551 100.084 60.8233C96.7573 60.7907 93.8847 61.5014 93.5527 62.438C93.2201 63.3752 92.8569 65.5711 92.1618 67.7032C91.466 69.8354 83.393 89.0871 81.2765 94.0608C80.4212 96.0739 79.5239 98.0664 78.5855 100.037C78.5855 100.037 78.555 100.134 78.4642 100.295C78.1694 100.913 77.8672 101.527 77.5577 102.136V102.168C77.1038 103.041 76.6201 103.848 76.3782 103.848C76.1966 103.848 75.864 101.523 76.4385 98.357C77.6478 91.6709 80.5204 81.2699 80.4906 80.9146C80.4906 80.7206 81.0346 78.9119 78.616 77.9747C76.2569 77.0382 75.4107 78.5885 75.1987 78.5885C74.9873 78.5885 74.8356 79.1378 74.8356 79.1378C74.8356 79.1378 77.4669 67.4449 69.8167 67.4449C65.0396 67.4449 58.4476 73.0329 55.1821 78.0717C51.4698 80.2298 47.7608 82.394 44.0549 84.5645C42.2717 85.6305 40.4269 86.6966 38.7033 87.6976C38.5821 87.5687 38.4615 87.4066 38.3402 87.2778C29.0876 76.7154 11.9741 69.2535 12.6997 55.0738C12.972 49.9055 14.6346 36.3388 45.567 19.8655C71.026 6.46019 91.2851 10.1745 94.7925 18.4115C99.8114 30.1695 83.9377 52.0051 57.6312 55.1701C47.5928 56.3657 42.3313 52.2309 41.0014 50.6806C39.6105 49.0652 39.3984 48.9682 38.8842 49.2917C38.038 49.7766 38.5821 51.2299 38.8842 52.0695C39.6708 54.2654 42.9058 58.1418 48.3787 60.0481C53.2167 61.7272 64.9787 62.6645 79.2203 56.7855C95.155 50.1957 107.613 31.8812 103.954 16.5384C100.295 0.969087 76.1059 -4.16665 53.2167 4.52199C39.6105 9.69098 24.8546 17.8303 14.2417 28.4253C1.63279 41.0222 -0.363096 51.9725 0.453287 56.5596C3.38682 72.839 24.4014 83.4339 32.8071 91.283C32.3837 91.5414 31.99 91.7679 31.658 91.9619C27.4549 94.1903 11.4294 103.137 7.43826 112.602C2.90308 123.326 8.16451 131.014 11.6414 132.047C22.436 135.245 33.5327 129.496 39.4892 119.999C45.4458 110.502 44.7202 98.163 41.9689 92.5105C41.9384 92.4461 41.9086 92.381 41.8476 92.3165C42.9363 91.6384 44.0549 90.9277 45.1436 90.2495C47.1446 88.9859 49.171 87.7687 51.2214 86.5989C50.193 89.6032 49.4369 93.1887 49.0744 98.357C48.6205 104.43 50.9484 112.311 54.0026 115.411C55.3636 116.769 56.9659 116.801 57.9943 116.801C61.562 116.801 63.165 113.635 64.9488 109.888C67.1256 105.302 69.0911 99.9724 69.0911 99.9724C69.0911 99.9724 66.6419 114.379 73.2942 114.379C75.7129 114.379 78.162 111.019 79.2508 109.307V109.339C79.2508 109.339 79.3111 109.242 79.4323 109.016C79.6742 108.597 79.8253 108.338 79.8253 108.338V108.274C80.7928 106.464 82.9702 102.362 86.2053 95.5466C90.378 86.761 94.3996 75.7788 94.3996 75.7788C94.3996 75.7788 94.7627 78.4596 96.0019 82.9172C96.7281 85.5335 98.239 88.4083 99.449 91.186C98.4815 92.64 97.8765 93.447 97.8765 93.447L97.907 93.4796C97.1204 94.5775 96.2742 95.7725 95.3366 96.9362C92.0406 101.135 88.1104 105.948 87.5657 107.337C86.9302 108.984 87.0819 110.179 88.2919 111.149C89.1686 111.859 90.7404 111.956 92.3434 111.859C95.3067 111.633 97.3928 110.858 98.4205 110.373C100.023 109.76 101.898 108.822 103.651 107.434C106.887 104.882 108.852 101.232 108.671 96.4195C108.58 93.7705 107.764 91.1216 106.766 88.6341C107.069 88.1825 107.34 87.7301 107.643 87.2778C112.753 79.2992 116.714 70.5454 116.714 70.5454C116.714 70.5454 117.077 73.2262 118.317 77.6845C118.922 79.9455 120.161 82.4004 121.249 84.7903C116.442 88.9576 113.479 93.8024 112.42 96.9681C110.516 102.847 111.997 105.495 114.809 106.109C116.079 106.4 117.893 105.754 119.224 105.14C120.917 104.559 122.913 103.558 124.818 102.071C128.053 99.52 131.167 95.9664 130.986 91.1542C130.895 88.9576 130.351 86.7929 129.595 84.6933C133.677 82.8853 138.938 81.8837 145.65 82.7232C160.044 84.5319 162.886 94.1252 162.341 98.1637C161.797 102.201 158.773 104.397 157.776 105.076C156.777 105.754 156.445 105.98 156.536 106.464C156.657 107.175 157.14 107.143 157.987 107.014C159.167 106.788 165.547 103.751 165.818 96.3218C166.272 86.8254 157.806 76.457 142.839 76.554ZM31.8091 116.543C27.0314 122.098 20.3798 124.198 17.5072 122.422C14.4232 120.515 15.6326 112.311 21.4983 106.433C25.066 102.847 29.6622 99.5193 32.7163 97.4848C33.4114 97.0325 34.4398 96.3869 35.6797 95.5792C35.891 95.4497 36.0123 95.3852 36.0123 95.3852L36.7379 94.9003C38.8842 103.299 36.8287 110.696 31.8091 116.543ZM66.5816 91.283C64.9184 95.6118 61.4414 106.691 59.3249 106.077C57.5106 105.56 56.3914 97.162 58.9618 88.8606C60.2619 84.6933 63.0132 79.719 64.6162 77.7814C67.2164 74.6802 70.089 73.646 70.7841 74.9067C71.6615 76.554 67.6094 88.5697 66.5816 91.283ZM95.2763 105.948C94.5805 106.336 93.9158 106.594 93.613 106.4C93.4016 106.27 93.9158 105.754 93.9158 105.754C93.9158 105.754 97.514 101.62 98.9347 99.7458C99.7518 98.6479 100.719 97.356 101.747 95.902V96.3218C101.747 101.264 97.2715 104.591 95.2756 105.948H95.2763ZM117.409 100.554C116.895 100.166 116.986 98.8737 118.709 94.8359C119.375 93.2531 120.947 90.6049 123.638 88.0529C123.94 89.0864 124.152 90.0881 124.122 91.0247C124.092 97.259 119.919 99.5844 117.409 100.554Z" fill="#CD6799"/>
</g>
<defs>
<clipPath id="clip0_21_96">
<rect width="166" height="133" fill="white"/>
</clipPath>
</defs>
</svg>
