<svg width="124" height="133" viewBox="0 0 124 133" fill="none" xmlns="http://www.w3.org/2000/svg">
<g clip-path="url(#clip0_21_93)">
<path d="M-5.16663 0H124V140.331H-5.16663V0Z" fill="#F5DE19"/>
<path d="M78.8281 104.7C79.791 106.825 81.2872 108.611 83.144 109.853C85.0008 111.094 87.1427 111.74 89.3229 111.716C93.7226 111.716 96.536 109.326 96.536 106.015C96.536 102.069 93.6459 100.657 88.8022 98.3543L86.1462 97.1176C78.4769 93.5699 73.391 89.1275 73.391 79.7341C73.391 71.0819 79.4456 64.4907 88.9434 64.4907C92.018 64.2495 95.0899 64.9971 97.776 66.6403C100.462 68.2834 102.643 70.7494 104.048 73.7306L95.7449 79.4973C95.2041 78.0191 94.2624 76.7544 93.0449 75.871C91.8273 74.9876 90.3913 74.5271 88.9273 74.5507C88.2886 74.4812 87.6435 74.5571 87.0333 74.7734C86.423 74.9897 85.8609 75.3418 85.3828 75.8071C84.9047 76.2725 84.5211 76.841 84.2564 77.4763C83.9917 78.1117 83.8517 78.8 83.8454 79.4973C83.8454 82.9574 85.8192 84.3607 90.3764 86.5139L93.0324 87.7505C102.058 91.9561 107.16 96.2405 107.16 105.875C107.16 116.264 99.6481 121.956 89.561 121.956C85.6307 122.228 81.7119 121.259 78.2776 119.165C74.8432 117.071 72.04 113.942 70.2062 110.155L78.8281 104.7ZM41.3092 105.7C42.9762 108.914 44.4939 111.633 48.1429 111.633C51.6304 111.633 53.8343 110.151 53.8343 104.384V65.1485H64.4542V104.538C64.4542 116.483 57.9959 121.921 48.595 121.921C45.272 122.118 41.9718 121.219 39.1282 119.34C36.2847 117.462 34.0309 114.692 32.6631 111.396L41.3092 105.7Z" fill="black"/>
</g>
<defs>
<clipPath id="clip0_21_93">
<rect width="124" height="133" fill="white"/>
</clipPath>
</defs>
</svg>
