<svg width="36" height="37" viewBox="0 0 36 37" fill="none" xmlns="http://www.w3.org/2000/svg">
<path d="M16.8665 4.03869C12.6131 4.33853 8.62171 6.46686 6.01622 9.82402C1.99459 15.0146 1.99459 22.2499 6.01622 27.4405C8.33445 30.429 11.706 32.4345 15.4806 33.0538C19.5577 33.7272 23.7507 32.7343 27.0315 30.3209C30.0956 28.0599 32.1517 24.7715 32.7867 21.0899C33.4822 17.1085 32.4592 13.0239 29.9746 9.81419C26.8803 5.83278 22.007 3.67987 16.8665 4.03869ZM10.4813 11.7263L10.4914 15.511L10.6426 15.0834C10.9299 14.2576 11.3784 13.5253 11.837 13.132C11.963 13.019 12.2402 12.8469 12.4417 12.7486C12.7794 12.5864 12.86 12.5668 13.3287 12.5471C13.9385 12.5225 14.3014 12.5864 14.7247 12.788C15.4857 13.1615 16.0501 13.9578 16.3374 15.049C16.6095 16.0911 16.6045 15.9092 16.6246 22.1566L16.6448 27.9714H15.4806H14.3215V23.1396C14.3165 18.2685 14.2913 17.3199 14.1451 16.7595C13.9889 16.1795 13.6563 15.7322 13.2279 15.5307C12.9256 15.3882 12.4417 15.4177 12.0739 15.5995C11.5397 15.8649 10.9903 16.6367 10.7787 17.428C10.5216 18.3718 10.5267 18.244 10.5065 23.2625L10.4864 27.9714H9.3071H8.12278V17.9441V7.91688L9.29702 7.92671L10.4662 7.94146L10.4813 11.7263ZM21.7197 11.7263L21.7298 15.511L21.881 15.0834C22.1682 14.2576 22.6168 13.5253 23.0754 13.132C23.2014 13.019 23.4785 12.8469 23.6801 12.7486C24.0178 12.5864 24.0984 12.5668 24.5671 12.5471C25.1769 12.5225 25.5397 12.5864 25.9631 12.788C26.7241 13.1615 27.2885 13.9578 27.5758 15.049C27.8479 16.0911 27.8429 15.9092 27.863 22.1566L27.8832 27.9714H26.719H25.5599V23.1396C25.5549 18.2685 25.5297 17.3199 25.3835 16.7595C25.2273 16.1795 24.8947 15.7322 24.4663 15.5307C24.1639 15.3882 23.6801 15.4177 23.3122 15.5995C22.778 15.8649 22.2287 16.6367 22.017 17.428C21.76 18.3718 21.7651 18.244 21.7449 23.2625L21.7247 27.9714H20.5455H19.3612V17.9441V7.91688L20.5354 7.92671L21.7046 7.94146L21.7197 11.7263Z" fill="#575757"/>
</svg>
