<svg width="36" height="37" viewBox="0 0 36 37" fill="none" xmlns="http://www.w3.org/2000/svg">
<path d="M18 4C9.71571 4 3 10.5501 3 18.63C3 26.7099 9.71571 33.26 18 33.26C26.2843 33.26 33 26.7099 33 18.63C33 10.5501 26.2843 4 18 4ZM24.9527 13.9496C24.727 16.2629 23.7503 21.8768 23.2531 24.4678C23.0429 25.5641 22.6288 25.9318 22.2281 25.9677C21.3571 26.0459 20.6955 25.4063 19.8518 24.8669C18.5317 24.0228 17.7858 23.4974 16.5043 22.6737C15.0233 21.7219 15.9834 21.1989 16.8274 20.3435C17.0483 20.1198 20.8863 16.7149 20.9606 16.4061C20.9698 16.3674 20.9787 16.2232 20.8908 16.1474C20.8028 16.0717 20.6736 16.0974 20.5802 16.1179C20.4478 16.1473 18.3388 17.5069 14.2531 20.1968C13.6545 20.5977 13.1123 20.793 12.6264 20.7828C12.0908 20.7715 11.0606 20.4875 10.2947 20.2446C9.35534 19.9468 8.60873 19.7894 8.67375 19.2836C8.70762 19.0201 9.0796 18.7507 9.78968 18.4754C14.1625 16.6172 17.0784 15.3921 18.5373 14.8002C22.703 13.1102 23.5686 12.8167 24.1328 12.8069C24.2569 12.8049 24.5343 12.8349 24.714 12.9771C24.8335 13.0784 24.9097 13.2198 24.9275 13.3733C24.958 13.5639 24.9664 13.7572 24.9527 13.9496Z" fill="#575757"/>
</svg>
